
            <svg xmlns="http://www.w3.org/2000/svg">
                <filter id="grayscale">
                    <feColorMatrix type="saturate" values="0"/>
                </filter>
                <g filter="url(#grayscale)">
                    <svg xmlns="http://www.w3.org/2000/svg" viewBox="2.4250054931640648 107.71999740600586 570.1499938964844 340.7700023651123"> <svg version="1.1" id="Layer_1" xmlns="http://www.w3.org/2000/svg" xmlns:xlink="http://www.w3.org/1999/xlink" x="183.501" y="177.71999740600586" viewBox="170.80078125 158.5 254.19921875 154.6015625" xml:space="preserve" height="126.50190993332967" width="207.9998779296875" preserveAspectRatio="xMinYMin" enable-background="new 0 0 533.4 533.4" style="overflow: visible;"><path class="st0" d="M205.5,313.1h-21.2c-7.5,0-13.5-6-13.5-13.5s6-13.5,13.5-13.5h21.2c7.5,0,13.5,6,13.5,13.5   S213,313.1,205.5,313.1z" style="fill: #24FF9C;"></path><path class="st0" d="M346.7,228h-41.2c-7.5,0-13.5-6-13.5-13.5s6-13.5,13.5-13.5h41.2c7.5,0,13.5,6,13.5,13.5S354.1,228,346.7,228z   " style="fill: #24FF9C;"></path><path class="st1" d="M293.9,271.6h-41.2c-7.5,0-13.5-6-13.5-13.5s6-13.5,13.5-13.5h41.2c7.5,0,13.5,6,13.5,13.5   S301.3,271.6,293.9,271.6z" style="fill: #24C5FF; fill-opacity: 1;"></path><path class="st1" d="M411.5,313.1h-28.2c-7.5,0-13.5-6-13.5-13.5s6-13.5,13.5-13.5h28.2c7.5,0,13.5,6,13.5,13.5   S419,313.1,411.5,313.1z" style="fill: #24C5FF; fill-opacity: 1;"></path><path class="st2" d="M411.5,187.2h-61.4c-7.5,0-13.5-6-13.5-13.5s6-13.5,13.5-13.5h61.4c7.5,0,13.5,6,13.5,13.5   S419,187.2,411.5,187.2z" style="fill: #FFF238;"></path><path class="st2" d="M411.5,272.6h-81.6c-7.5,0-13.5-6-13.5-13.5s6-13.5,13.5-13.5h81.6c7.5,0,13.5,6,13.5,13.5   S419,272.6,411.5,272.6z" style="fill: #FFF238;"></path><path class="st3" d="M313.7,185.5H184.3c-7.5,0-13.5-6-13.5-13.5s6-13.5,13.5-13.5h129.3c7.5,0,13.5,6,13.5,13.5   S321.1,185.5,313.7,185.5z" style="fill: #FFB53D; fill-opacity: 1;"></path><path class="st4" d="M269,228h-84.7c-7.5,0-13.5-6-13.5-13.5s6-13.5,13.5-13.5H269c7.5,0,13.5,6,13.5,13.5S276.4,228,269,228z" style="fill: #ff3d6d; fill-opacity: 1;"></path><path class="st4" d="M411.5,228h-29.3c-7.5,0-13.5-6-13.5-13.5s6-13.5,13.5-13.5h29.3c7.5,0,13.5,6,13.5,13.5S419,228,411.5,228z" style="fill: #ff3d6d; fill-opacity: 1;"></path><path class="st4" d="M216.7,270.7h-32.3c-7.5,0-13.5-6-13.5-13.5s6-13.5,13.5-13.5h32.3c7.5,0,13.5,6,13.5,13.5   S224.1,270.7,216.7,270.7z" style="fill: #ff3d6d; fill-opacity: 1;"></path><path class="st3" d="M347.3,313.1H242.6c-7.5,0-13.5-6-13.5-13.5s6-13.5,13.5-13.5h104.7c7.5,0,13.5,6,13.5,13.5   S354.7,313.1,347.3,313.1z" style="fill: #FFB53D; fill-opacity: 1;"></path></svg> <svg y="336.85999870300293" viewBox="2.940000057220459 13.569999694824219 430.1499938964844 41.630001068115234" x="72.42500549316406" height="41.630001068115234" width="430.1499938964844" style="overflow: visible;"><g fill="#ffffff" fill-opacity="1" style=""><path d="M7.18 46.92L7.18 46.92Q5.15 46.92 4.05 45.82Q2.94 44.71 2.94 42.64L2.94 42.64L2.94 18.35Q2.94 16.28 4.05 15.18Q5.15 14.08 7.22 14.08L7.22 14.08L18.54 14.08Q24.06 14.08 27.07 16.77Q30.08 19.46 30.08 24.24L30.08 24.24Q30.08 27.88 28.27 30.34Q26.45 32.80 23 33.76L23 33.76Q25.58 34.45 27.14 37.31L27.14 37.31L29.44 41.45Q30.18 42.83 30.11 44.07Q30.04 45.31 29.12 46.12Q28.20 46.92 26.40 46.92L26.40 46.92Q24.61 46.92 23.48 46.21Q22.36 45.49 21.48 43.88L21.48 43.88L17.30 36.20Q16.74 35.19 15.89 34.80Q15.04 34.41 13.94 34.41L13.94 34.41L11.41 34.41L11.41 42.64Q11.41 44.71 10.33 45.82Q9.25 46.92 7.18 46.92ZM11.41 20.56L11.41 28.43L17.02 28.43Q22.03 28.43 22.03 24.47L22.03 24.47Q22.03 20.56 17.02 20.56L17.02 20.56L11.41 20.56ZM47.06 47.01L47.06 47.01Q43.33 47.01 40.57 45.84Q37.81 44.67 36.32 42.57Q34.82 40.48 34.82 37.67L34.82 37.67Q34.82 34.55 36.55 32.34Q38.27 30.13 40.94 28.70L40.94 28.70Q39.47 27.23 38.73 25.51Q38.00 23.78 38.00 21.99L38.00 21.99Q38.00 19.50 39.26 17.60Q40.53 15.69 42.80 14.63Q45.08 13.57 48.16 13.57L48.16 13.57Q52.26 13.57 54.67 15.66Q57.09 17.76 57.09 21.30L57.09 21.30Q57.09 26.50 51.66 29.58L51.66 29.58L56.35 34.13Q56.90 33.03 57.27 31.79Q57.64 30.54 57.91 29.21L57.91 29.21Q58.24 27.65 59.09 26.86Q59.94 26.08 61.50 26.08L61.50 26.08Q63.16 26.08 64.01 27.00Q64.86 27.92 64.58 29.62L64.58 29.62Q64.17 32.25 63.32 34.52Q62.47 36.80 61.18 38.69L61.18 38.69L64.31 41.63Q65.60 42.83 65.62 44.05Q65.64 45.26 64.68 46.09Q63.71 46.92 62.10 46.92L62.10 46.92Q60.63 46.92 59.73 46.34Q58.83 45.77 57.73 44.76L57.73 44.76L56.67 43.70Q54.60 45.26 52.14 46.14Q49.68 47.01 47.06 47.01ZM48.16 18.91L48.16 18.91Q46.87 18.91 46.14 19.69Q45.40 20.47 45.40 21.76L45.40 21.76Q45.40 22.72 45.88 23.60Q46.37 24.47 47.47 25.62L47.47 25.62Q49.27 24.70 50.02 23.76Q50.78 22.82 50.78 21.53L50.78 21.53Q50.78 20.19 50.07 19.55Q49.36 18.91 48.16 18.91ZM47.61 40.85L47.61 40.85Q48.90 40.85 49.98 40.48Q51.06 40.11 52.07 39.38L52.07 39.38L45.22 32.80Q42.92 34.41 42.92 37.08L42.92 37.08Q42.92 38.82 44.16 39.84Q45.40 40.85 47.61 40.85ZM74.89 46.92L74.89 46.92Q72.86 46.92 71.76 45.82Q70.66 44.71 70.66 42.64L70.66 42.64L70.66 17.94Q70.66 15.87 71.76 14.77Q72.86 13.66 74.89 13.66L74.89 13.66Q76.91 13.66 78.02 14.77Q79.12 15.87 79.12 17.94L79.12 17.94L79.12 27.97L79.21 27.97L90.39 15.64Q91.26 14.72 92.25 14.19Q93.24 13.66 94.48 13.66L94.48 13.66Q96.37 13.66 97.24 14.65Q98.12 15.64 98.03 16.97Q97.93 18.31 96.97 19.37L96.97 19.37L87.40 29.49L97.52 40.94Q98.72 42.27 98.72 43.65Q98.72 45.03 97.75 45.98Q96.78 46.92 94.99 46.92L94.99 46.92Q93.43 46.92 92.46 46.30Q91.49 45.68 90.44 44.44L90.44 44.44L79.21 31.88L79.12 31.88L79.12 42.64Q79.12 44.71 78.04 45.82Q76.96 46.92 74.89 46.92ZM130.00 46.51L120.98 46.51Q116.56 46.51 116.56 42.14L116.56 42.14L116.56 18.45Q116.56 14.08 120.98 14.08L120.98 14.08L130.00 14.08Q138.41 14.08 143.06 18.31Q147.71 22.54 147.71 30.27L147.71 30.27Q147.71 38.00 143.06 42.25Q138.41 46.51 130.00 46.51L130.00 46.51ZM125.03 20.93L125.03 39.65L129.44 39.65Q134.27 39.65 136.60 37.33Q138.92 35.01 138.92 30.27L138.92 30.27Q138.92 25.53 136.57 23.23Q134.23 20.93 129.44 20.93L129.44 20.93L125.03 20.93ZM164.50 47.01L164.50 47.01Q160.36 47.01 157.34 45.56Q154.33 44.11 152.72 41.45Q151.11 38.78 151.11 35.14L151.11 35.14Q151.11 31.69 152.65 29.03Q154.19 26.36 156.88 24.86Q159.57 23.37 163.02 23.37L163.02 23.37Q166.43 23.37 168.94 24.79Q171.44 26.22 172.80 28.87Q174.16 31.51 174.16 35.05L174.16 35.05Q174.16 36.85 172.04 36.85L172.04 36.85L158.93 36.85Q159.34 39.05 160.77 40.02Q162.20 40.99 164.73 40.99L164.73 40.99Q165.69 40.99 167.03 40.76Q168.36 40.53 169.56 40.02L169.56 40.02Q171.03 39.47 172.04 40.00Q173.05 40.53 173.40 41.61Q173.74 42.69 173.31 43.81Q172.87 44.94 171.58 45.54L171.58 45.54Q169.97 46.32 168.15 46.67Q166.34 47.01 164.50 47.01ZM163.39 28.66L163.39 28.66Q161.55 28.66 160.38 29.76Q159.21 30.87 158.88 32.98L158.88 32.98L167.44 32.98Q167.30 30.82 166.27 29.74Q165.23 28.66 163.39 28.66ZM187.31 46.92L187.31 46.92Q184.14 46.92 182.71 43.70L182.71 43.70L176.13 28.66Q175.26 26.59 176.13 25.02Q177.01 23.46 179.68 23.46L179.68 23.46Q181.10 23.46 182.02 24.13Q182.94 24.79 183.68 26.73L183.68 26.73L187.54 36.71L191.64 26.68Q192.37 24.79 193.29 24.13Q194.21 23.46 195.82 23.46L195.82 23.46Q197.16 23.46 198.01 24.17Q198.86 24.89 199.07 26.08Q199.27 27.28 198.63 28.66L198.63 28.66L191.91 43.75Q190.53 46.92 187.31 46.92ZM213.95 47.01L213.95 47.01Q209.81 47.01 206.79 45.56Q203.78 44.11 202.17 41.45Q200.56 38.78 200.56 35.14L200.56 35.14Q200.56 31.69 202.10 29.03Q203.64 26.36 206.33 24.86Q209.02 23.37 212.47 23.37L212.47 23.37Q215.88 23.37 218.38 24.79Q220.89 26.22 222.25 28.87Q223.61 31.51 223.61 35.05L223.61 35.05Q223.61 36.85 221.49 36.85L221.49 36.85L208.38 36.85Q208.79 39.05 210.22 40.02Q211.65 40.99 214.18 40.99L214.18 40.99Q215.14 40.99 216.48 40.76Q217.81 40.53 219.01 40.02L219.01 40.02Q220.48 39.47 221.49 40.00Q222.50 40.53 222.85 41.61Q223.19 42.69 222.75 43.81Q222.32 44.94 221.03 45.54L221.03 45.54Q219.42 46.32 217.60 46.67Q215.79 47.01 213.95 47.01ZM212.84 28.66L212.84 28.66Q211.00 28.66 209.83 29.76Q208.66 30.87 208.33 32.98L208.33 32.98L216.89 32.98Q216.75 30.82 215.72 29.74Q214.68 28.66 212.84 28.66ZM235.75 47.01L235.75 47.01Q231.29 47.01 229.22 44.64Q227.15 42.27 227.15 37.49L227.15 37.49L227.15 17.80Q227.15 13.66 231.20 13.66L231.20 13.66Q233.17 13.66 234.25 14.72Q235.34 15.78 235.34 17.80L235.34 17.80L235.34 37.21Q235.34 38.92 236.00 39.70Q236.67 40.48 237.73 40.48L237.73 40.48Q238.05 40.48 238.40 40.41Q238.74 40.34 239.15 40.30L239.15 40.30Q239.98 40.30 240.35 40.89Q240.72 41.49 240.72 43.33L240.72 43.33Q240.72 44.94 240.07 45.75Q239.43 46.55 238.10 46.78L238.10 46.78Q237.73 46.87 237.04 46.94Q236.35 47.01 235.75 47.01ZM254.38 47.01L254.38 47.01Q250.61 47.01 247.80 45.59Q245.00 44.16 243.43 41.49Q241.87 38.82 241.87 35.19L241.87 35.19Q241.87 31.51 243.43 28.87Q245.00 26.22 247.80 24.79Q250.61 23.37 254.38 23.37L254.38 23.37Q258.15 23.37 260.96 24.79Q263.76 26.22 265.31 28.87Q266.85 31.51 266.85 35.19L266.85 35.19Q266.85 38.82 265.31 41.49Q263.76 44.16 260.96 45.59Q258.15 47.01 254.38 47.01ZM254.38 40.99L254.38 40.99Q256.22 40.99 257.42 39.61Q258.61 38.23 258.61 35.19L258.61 35.19Q258.61 32.11 257.42 30.75Q256.22 29.39 254.38 29.39L254.38 29.39Q252.49 29.39 251.30 30.75Q250.10 32.11 250.10 35.19L250.10 35.19Q250.10 38.23 251.30 39.61Q252.49 40.99 254.38 40.99ZM274.67 55.20L274.67 55.20Q270.62 55.20 270.62 51.06L270.62 51.06L270.62 27.55Q270.62 23.46 274.62 23.46L274.62 23.46Q278.25 23.46 278.62 26.86L278.62 26.86Q279.54 25.25 281.40 24.31Q283.27 23.37 285.52 23.37L285.52 23.37Q288.42 23.37 290.65 24.79Q292.88 26.22 294.15 28.87Q295.41 31.51 295.41 35.19L295.41 35.19Q295.41 38.82 294.17 41.49Q292.93 44.16 290.70 45.59Q288.47 47.01 285.52 47.01L285.52 47.01Q283.41 47.01 281.59 46.14Q279.77 45.26 278.81 43.79L278.81 43.79L278.81 51.06Q278.81 53.08 277.73 54.14Q276.64 55.20 274.67 55.20ZM282.95 40.99L282.95 40.99Q284.79 40.99 285.98 39.61Q287.18 38.23 287.18 35.19L287.18 35.19Q287.18 32.11 285.98 30.75Q284.79 29.39 282.95 29.39L282.95 29.39Q281.06 29.39 279.86 30.75Q278.67 32.11 278.67 35.19L278.67 35.19Q278.67 38.23 279.86 39.61Q281.06 40.99 282.95 40.99ZM303.28 46.92L303.28 46.92Q301.30 46.92 300.26 45.86Q299.23 44.80 299.23 42.78L299.23 42.78L299.23 27.55Q299.23 23.46 303.23 23.46L303.23 23.46Q306.87 23.46 307.19 26.96L307.19 26.96Q308.20 25.30 309.97 24.33Q311.74 23.37 314.09 23.37L314.09 23.37Q316.39 23.37 318.07 24.38Q319.75 25.39 320.62 27.51L320.62 27.51Q321.77 25.53 323.75 24.45Q325.73 23.37 328.12 23.37L328.12 23.37Q332.07 23.37 333.98 25.74Q335.89 28.11 335.89 33.12L335.89 33.12L335.89 42.78Q335.89 44.80 334.81 45.86Q333.73 46.92 331.75 46.92L331.75 46.92Q329.82 46.92 328.76 45.86Q327.70 44.80 327.70 42.78L327.70 42.78L327.70 33.35Q327.70 31.37 327.11 30.50Q326.51 29.62 325.13 29.62L325.13 29.62Q323.43 29.62 322.53 30.82Q321.63 32.02 321.63 34.22L321.63 34.22L321.63 42.78Q321.63 44.80 320.57 45.86Q319.52 46.92 317.54 46.92L317.54 46.92Q315.56 46.92 314.50 45.86Q313.44 44.80 313.44 42.78L313.44 42.78L313.44 33.35Q313.44 31.37 312.85 30.50Q312.25 29.62 310.87 29.62L310.87 29.62Q309.21 29.62 308.31 30.82Q307.42 32.02 307.42 34.22L307.42 34.22L307.42 42.78Q307.42 46.92 303.28 46.92ZM352.96 47.01L352.96 47.01Q348.82 47.01 345.81 45.56Q342.79 44.11 341.18 41.45Q339.57 38.78 339.57 35.14L339.57 35.14Q339.57 31.69 341.11 29.03Q342.65 26.36 345.35 24.86Q348.04 23.37 351.49 23.37L351.49 23.37Q354.89 23.37 357.40 24.79Q359.90 26.22 361.26 28.87Q362.62 31.51 362.62 35.05L362.62 35.05Q362.62 36.85 360.50 36.85L360.50 36.85L347.39 36.85Q347.81 39.05 349.23 40.02Q350.66 40.99 353.19 40.99L353.19 40.99Q354.15 40.99 355.49 40.76Q356.82 40.53 358.02 40.02L358.02 40.02Q359.49 39.47 360.50 40.00Q361.51 40.53 361.86 41.61Q362.20 42.69 361.77 43.81Q361.33 44.94 360.04 45.54L360.04 45.54Q358.43 46.32 356.62 46.67Q354.80 47.01 352.96 47.01ZM351.85 28.66L351.85 28.66Q350.01 28.66 348.84 29.76Q347.67 30.87 347.35 32.98L347.35 32.98L355.90 32.98Q355.76 30.82 354.73 29.74Q353.69 28.66 351.85 28.66ZM370.21 46.92L370.21 46.92Q368.23 46.92 367.20 45.86Q366.16 44.80 366.16 42.78L366.16 42.78L366.16 27.55Q366.16 23.46 370.16 23.46L370.16 23.46Q373.80 23.46 374.12 27.00L374.12 27.00Q375.27 25.25 377.18 24.31Q379.09 23.37 381.43 23.37L381.43 23.37Q385.48 23.37 387.44 25.76Q389.39 28.15 389.39 33.12L389.39 33.12L389.39 42.78Q389.39 44.80 388.33 45.86Q387.27 46.92 385.30 46.92L385.30 46.92Q383.32 46.92 382.26 45.86Q381.20 44.80 381.20 42.78L381.20 42.78L381.20 33.44Q381.20 31.37 380.49 30.50Q379.78 29.62 378.40 29.62L378.40 29.62Q376.56 29.62 375.45 30.80Q374.35 31.97 374.35 33.95L374.35 33.95L374.35 42.78Q374.35 46.92 370.21 46.92ZM405.90 47.01L405.90 47.01Q400.75 47.01 398.27 44.62Q395.78 42.23 395.78 37.40L395.78 37.40L395.78 29.90L394.22 29.90Q391.14 29.90 391.14 26.86L391.14 26.86Q391.14 23.87 394.22 23.87L394.22 23.87L395.78 23.87L395.78 21.02Q395.78 19.00 396.84 17.94Q397.90 16.88 399.88 16.88L399.88 16.88Q403.97 16.88 403.97 21.02L403.97 21.02L403.97 23.87L407.74 23.87Q410.87 23.87 410.87 26.86L410.87 26.86Q410.87 29.90 407.74 29.90L407.74 29.90L403.97 29.90L403.97 37.12Q403.97 40.43 407.33 40.43L407.33 40.43Q407.97 40.43 408.57 40.30Q409.17 40.16 409.68 40.16L409.68 40.16Q410.41 40.11 410.87 40.59Q411.33 41.08 411.33 42.78L411.33 42.78Q411.33 44.16 410.92 45.10Q410.50 46.05 409.45 46.46L409.45 46.46Q408.80 46.69 407.70 46.85Q406.59 47.01 405.90 47.01ZM422.65 47.01L422.65 47.01Q420.58 47.01 418.51 46.69Q416.44 46.37 414.74 45.63L414.74 45.63Q413.31 45.08 412.87 44.02Q412.44 42.96 412.78 41.91Q413.13 40.85 414.05 40.30Q414.97 39.74 416.25 40.20L416.25 40.20Q418.14 40.89 419.70 41.19Q421.27 41.49 422.69 41.49L422.69 41.49Q424.40 41.49 425.13 41.01Q425.87 40.53 425.87 39.74L425.87 39.74Q425.87 39.05 425.38 38.71Q424.90 38.36 424.03 38.18L424.03 38.18L418.92 37.35Q416.07 36.89 414.51 35.28Q412.94 33.67 412.94 31.10L412.94 31.10Q412.94 28.70 414.28 26.98Q415.61 25.25 418.00 24.31Q420.39 23.37 423.48 23.37L423.48 23.37Q425.55 23.37 427.25 23.69Q428.95 24.01 430.56 24.75L430.56 24.75Q431.80 25.25 432.15 26.31Q432.49 27.37 432.10 28.41Q431.71 29.44 430.77 29.97Q429.82 30.50 428.49 29.99L428.49 29.99Q426.97 29.39 425.80 29.12Q424.63 28.84 423.61 28.84L423.61 28.84Q421.73 28.84 420.95 29.37Q420.16 29.90 420.16 30.64L420.16 30.64Q420.16 31.88 421.87 32.15L421.87 32.15L426.97 33.03Q429.92 33.49 431.50 35.03Q433.09 36.57 433.09 39.19L433.09 39.19Q433.09 42.92 430.24 44.97Q427.39 47.01 422.65 47.01Z" transform="translate(0, 0)"></path></g></svg></svg>
                </g>
            </svg>
        